<svg xmlns="http://www.w3.org/2000/svg" xmlns:xlink="http://www.w3.org/1999/xlink" version="1.1" focusable="false" style="" xml:space="preserve" width="20" height="20"><rect id="backgroundrect" width="100%" height="100%" x="0" y="0" fill="none" stroke="none"/>

<g class="currentLayer" style=""><title>Layer 1</title><path d="M6,16 c-1.1,0 -1.99,0.9 -1.99,2 S4.9,20 6,20 s2,-0.9 2,-2 s-0.9,-2 -2,-2 zM0,0 v2 h2 l3.6,7.59 l-1.35,2.45 c-0.16000000000000003,0.28 -0.25,0.6100000000000001 -0.25,0.9600000000000001 c0,1.1 0.9,2 2,2 h12 v-2 H6.42 c-0.14,0 -0.25,-0.11000000000000001 -0.25,-0.25 l0.030000000000000006,-0.12000000000000001 l0.9,-1.6300000000000001 h7.45 c0.7500000000000001,0 1.4100000000000001,-0.41000000000000003 1.75,-1.03 l3.58,-6.49 A1.003,1.003 0 0 0 19,2 H4.21 l-0.9400000000000001,-2 H0 zm16,16 c-1.1,0 -1.99,0.9 -1.99,2 s0.8900000000000001,2 1.99,2 s2,-0.9 2,-2 s-0.9,-2 -2,-2 z" id="svg_1" class="" fill="#d12360" fill-opacity="1"/></g></svg>